<?xml version="1.0" encoding="UTF-8"?>
<svg width="89px" height="18px" viewBox="0 0 89 18" version="1.1" xmlns="http://www.w3.org/2000/svg" xmlns:xlink="http://www.w3.org/1999/xlink">
    <!-- Generator: Sketch 46.2 (44496) - http://www.bohemiancoding.com/sketch -->
    <title>Carrie Clough</title>
    <desc>Created with Sketch.</desc>
    <defs></defs>
    <g id="Page-1" stroke="none" stroke-width="1" fill="none" fill-rule="evenodd">
        <g id="Artboard-5" transform="translate(-112.000000, -462.000000)" fill="#333333">
            <path d="M121.00042,472.203302 C120.777167,472.764157 120.474962,473.241967 120.093798,473.636744 C119.712634,474.031521 119.300166,474.352783 118.856382,474.60054 C118.412598,474.848297 117.960653,475.029347 117.500534,475.143696 C117.040414,475.258045 116.617056,475.315219 116.230447,475.315219 C115.609694,475.315219 115.070627,475.24171 114.61323,475.09469 C114.155833,474.947669 113.776036,474.710806 113.473827,474.384094 C113.171618,474.057382 112.945646,473.632663 112.795903,473.109923 C112.646159,472.587184 112.571289,471.950105 112.571289,471.198667 C112.571289,470.817503 112.594431,470.402312 112.640715,469.953083 C112.686999,469.503854 112.76187,469.039657 112.865329,468.56048 C112.968787,468.081302 113.100832,467.599409 113.261465,467.114786 C113.422098,466.630163 113.616762,466.163244 113.84546,465.714014 C114.074158,465.264785 114.338247,464.84415 114.637733,464.452095 C114.937219,464.060041 115.274817,463.719721 115.650535,463.431125 C116.026254,463.142529 116.442806,462.915195 116.900203,462.749117 C117.3576,462.583038 117.861274,462.5 118.411239,462.5 C118.797848,462.5 119.16131,462.5422 119.501635,462.6266 C119.841961,462.711001 120.13872,462.843045 120.391922,463.022737 C120.645123,463.202428 120.84387,463.433846 120.988168,463.716997 C121.132466,464.000147 121.204614,464.340467 121.204614,464.737967 C121.204614,464.96122 121.184195,465.166773 121.143356,465.354633 C121.102517,465.542492 121.034453,465.705846 120.939162,465.844699 C120.843871,465.983551 120.721355,466.091092 120.571612,466.167325 C120.421869,466.243558 120.240819,466.281674 120.028456,466.281674 C119.897771,466.281674 119.746669,466.257171 119.575145,466.208164 C119.403621,466.159157 119.238907,466.039365 119.080996,465.848783 C119.179009,465.799776 119.274299,465.722183 119.366867,465.616001 C119.459436,465.50982 119.541113,465.387305 119.6119,465.248452 C119.682688,465.109599 119.739862,464.958497 119.783423,464.795141 C119.826985,464.631785 119.848765,464.468432 119.848765,464.305075 C119.848765,464.174391 119.831069,464.04643 119.795675,463.921191 C119.760281,463.795951 119.701746,463.687049 119.620068,463.59448 C119.53839,463.501912 119.43221,463.427041 119.301525,463.369867 C119.17084,463.312692 119.012932,463.284105 118.827795,463.284105 C118.517419,463.284105 118.216576,463.398453 117.925257,463.627151 C117.633939,463.85585 117.35896,464.16486 117.100313,464.554192 C116.841666,464.943524 116.604803,465.39683 116.389718,465.914125 C116.174632,466.431419 115.99086,466.978653 115.838394,467.555845 C115.685928,468.133036 115.566136,468.726554 115.479012,469.336417 C115.391889,469.94628 115.348328,470.534353 115.348328,471.100654 C115.348328,471.487263 115.376915,471.839835 115.43409,472.158379 C115.491264,472.476923 115.594722,472.750541 115.744465,472.979239 C115.894208,473.207938 116.0984,473.386265 116.357047,473.514228 C116.615694,473.64219 116.949208,473.70617 117.357598,473.70617 C118.016467,473.70617 118.626321,473.559152 119.187177,473.265111 C119.748032,472.97107 120.22448,472.559963 120.616535,472.031779 L121.00042,472.203302 Z M130.066636,472.048114 C129.908725,472.500066 129.737204,472.892115 129.552067,473.224272 C129.36693,473.556429 129.17499,473.836853 128.97624,474.065551 C128.77749,474.29425 128.574659,474.479384 128.367741,474.620959 C128.160824,474.762535 127.959354,474.871437 127.763327,474.94767 C127.5673,475.023903 127.379443,475.075631 127.199751,475.102857 C127.02006,475.130083 126.856706,475.143696 126.709686,475.143696 C126.235953,475.143696 125.858879,475.014375 125.578451,474.755727 C125.298023,474.49708 125.127863,474.114561 125.067965,473.608157 C124.931835,473.798739 124.782095,473.985234 124.618739,474.167649 C124.455382,474.350063 124.272971,474.513416 124.071498,474.657714 C123.870026,474.802012 123.645415,474.919082 123.397658,475.008928 C123.149901,475.098774 122.876284,475.143696 122.576798,475.143696 C122.288202,475.143696 122.010501,475.097413 121.743686,475.004844 C121.476871,474.912276 121.240009,474.759812 121.033091,474.547449 C120.826173,474.335087 120.660097,474.057385 120.534857,473.714338 C120.409618,473.37129 120.346999,472.952016 120.346999,472.456502 C120.346999,472.075338 120.385115,471.666954 120.461347,471.231338 C120.53758,470.795722 120.65465,470.360112 120.812561,469.924496 C120.970472,469.48888 121.167858,469.070967 121.404724,468.670744 C121.64159,468.270522 121.919291,467.916589 122.237836,467.608935 C122.55638,467.301281 122.917119,467.056251 123.320064,466.873837 C123.723009,466.691422 124.166787,466.600217 124.65141,466.600217 C125.125142,466.600217 125.469546,466.681894 125.684632,466.84525 C125.899717,467.008606 126.007258,467.210075 126.007258,467.449664 L126.007258,467.57218 L126.186949,466.681894 L128.596439,466.681894 L127.395778,472.366657 C127.368552,472.459225 127.349494,472.550431 127.338603,472.640277 C127.327713,472.730123 127.322268,472.818606 127.322268,472.905729 C127.322268,473.384907 127.550963,473.624492 128.00836,473.624492 C128.171716,473.624492 128.322818,473.582293 128.461671,473.497892 C128.600523,473.413491 128.727122,473.300505 128.841472,473.15893 C128.955821,473.017355 129.056556,472.849917 129.143679,472.656612 C129.230802,472.463308 129.304311,472.260477 129.364208,472.048114 L130.066636,472.048114 Z M125.852071,468.274608 C125.852071,468.225601 125.84118,468.164344 125.8194,468.090833 C125.797619,468.017323 125.760864,467.946537 125.709135,467.878472 C125.657405,467.810406 125.58798,467.753233 125.500857,467.706949 C125.413734,467.660664 125.302109,467.637523 125.165979,467.637523 C124.931835,467.637523 124.709946,467.713754 124.500306,467.86622 C124.290666,468.018686 124.098725,468.221516 123.924479,468.474718 C123.750232,468.72792 123.595046,469.01515 123.458916,469.336417 C123.322786,469.657684 123.207077,469.988475 123.111786,470.3288 C123.016495,470.669125 122.944348,471.004 122.895341,471.333435 C122.846334,471.66287 122.821831,471.958268 122.821831,472.219637 C122.821831,472.540904 122.851779,472.788657 122.911676,472.962904 C122.971573,473.13715 123.043721,473.266472 123.128122,473.350872 C123.212523,473.435273 123.303728,473.48564 123.401742,473.501976 C123.499756,473.518312 123.586878,473.526479 123.66311,473.526479 C123.78835,473.526479 123.920394,473.49517 124.059247,473.43255 C124.198099,473.36993 124.331505,473.277363 124.459467,473.154846 C124.587429,473.032329 124.7045,472.878504 124.810681,472.693367 C124.916862,472.508231 124.997178,472.293148 125.05163,472.048114 L125.852071,468.274608 Z M128.727123,475.045683 L130.499527,466.681894 L132.909017,466.681894 L132.696656,467.7192 C132.843676,467.588515 132.993417,467.460555 133.145882,467.335315 C133.298348,467.210076 133.457618,467.099812 133.623697,467.004521 C133.789775,466.90923 133.962658,466.831637 134.142349,466.77174 C134.322041,466.711842 134.51262,466.681894 134.714093,466.681894 C134.904675,466.681894 135.072112,466.717288 135.21641,466.788075 C135.360708,466.858863 135.481862,466.95143 135.579876,467.065779 C135.677889,467.180128 135.751398,467.313534 135.800405,467.466 C135.849412,467.618465 135.873915,467.776374 135.873915,467.93973 C135.873915,468.08675 135.849412,468.232407 135.800405,468.376705 C135.751398,468.521003 135.676528,468.650324 135.575792,468.764674 C135.475056,468.879023 135.348456,468.972951 135.195991,469.046462 C135.043525,469.119972 134.866559,469.156726 134.665086,469.156726 C134.507175,469.156726 134.386021,469.129501 134.301621,469.075049 C134.21722,469.020597 134.15324,468.952533 134.109678,468.870855 C134.066117,468.789177 134.034807,468.700693 134.015749,468.605402 C133.996691,468.510111 133.976272,468.421628 133.954491,468.33995 C133.93271,468.258272 133.904123,468.190208 133.868729,468.135756 C133.833336,468.081304 133.774801,468.054078 133.693123,468.054078 C133.437198,468.054078 133.222116,468.112613 133.047869,468.229685 C132.873623,468.346757 132.683044,468.500582 132.476126,468.691164 L131.136613,475.045683 L128.727123,475.045683 Z M135.0163,475.045683 L136.788704,466.681894 L139.198194,466.681894 L138.985833,467.7192 C139.132853,467.588515 139.282594,467.460555 139.435059,467.335315 C139.587525,467.210076 139.746795,467.099812 139.912874,467.004521 C140.078952,466.90923 140.251835,466.831637 140.431526,466.77174 C140.611218,466.711842 140.801797,466.681894 141.00327,466.681894 C141.193852,466.681894 141.361289,466.717288 141.505587,466.788075 C141.649885,466.858863 141.771039,466.95143 141.869053,467.065779 C141.967066,467.180128 142.040575,467.313534 142.089582,467.466 C142.138589,467.618465 142.163092,467.776374 142.163092,467.93973 C142.163092,468.08675 142.138589,468.232407 142.089582,468.376705 C142.040575,468.521003 141.965705,468.650324 141.864969,468.764674 C141.764233,468.879023 141.637633,468.972951 141.485168,469.046462 C141.332702,469.119972 141.155736,469.156726 140.954263,469.156726 C140.796352,469.156726 140.675198,469.129501 140.590798,469.075049 C140.506397,469.020597 140.442417,468.952533 140.398855,468.870855 C140.355294,468.789177 140.323984,468.700693 140.304926,468.605402 C140.285868,468.510111 140.265449,468.421628 140.243668,468.33995 C140.221887,468.258272 140.1933,468.190208 140.157906,468.135756 C140.122513,468.081304 140.063978,468.054078 139.9823,468.054078 C139.726375,468.054078 139.511293,468.112613 139.337046,468.229685 C139.1628,468.346757 138.972221,468.500582 138.765303,468.691164 L137.42579,475.045683 L135.0163,475.045683 Z M146.07545,464.460263 C146.07545,464.6454 146.040057,464.818282 145.969269,464.978916 C145.898482,465.139549 145.801831,465.2784 145.679314,465.395472 C145.556797,465.512544 145.415224,465.605111 145.25459,465.673176 C145.093957,465.741241 144.921074,465.775273 144.735937,465.775273 C144.5508,465.775273 144.377918,465.741241 144.217284,465.673176 C144.056651,465.605111 143.916439,465.512544 143.796645,465.395472 C143.67685,465.2784 143.582922,465.139549 143.514857,464.978916 C143.446792,464.818282 143.41276,464.6454 143.41276,464.460263 C143.41276,464.275126 143.446792,464.102244 143.514857,463.94161 C143.582922,463.780977 143.67685,463.639403 143.796645,463.516886 C143.916439,463.394369 144.056651,463.297718 144.217284,463.226931 C144.377918,463.156143 144.5508,463.12075 144.735937,463.12075 C144.921074,463.12075 145.093957,463.156143 145.25459,463.226931 C145.415224,463.297718 145.556797,463.394369 145.679314,463.516886 C145.801831,463.639403 145.898482,463.780977 145.969269,463.94161 C146.040057,464.102244 146.07545,464.275126 146.07545,464.460263 Z M147.112756,472.048114 C146.954845,472.500066 146.77924,472.892115 146.585935,473.224272 C146.392631,473.556429 146.191161,473.836853 145.981521,474.065551 C145.771881,474.29425 145.556798,474.479384 145.336268,474.620959 C145.115737,474.762535 144.902016,474.871437 144.695098,474.94767 C144.488181,475.023903 144.290795,475.075631 144.102936,475.102857 C143.915076,475.130083 143.747639,475.143696 143.600618,475.143696 C143.350139,475.143696 143.115999,475.10558 142.898191,475.029347 C142.680383,474.953115 142.491165,474.833322 142.330531,474.669966 C142.169898,474.50661 142.043299,474.299695 141.95073,474.049216 C141.858162,473.798737 141.811878,473.496532 141.811878,473.142594 C141.811878,472.990129 141.822769,472.822691 141.844549,472.640277 C141.86633,472.457863 141.899001,472.260477 141.942562,472.048114 L143.077881,466.681894 L145.487371,466.681894 L144.28671,472.366657 C144.259484,472.459225 144.241788,472.550431 144.23362,472.640277 C144.225452,472.730123 144.221368,472.818606 144.221368,472.905729 C144.221368,473.139873 144.275819,473.301865 144.384723,473.391711 C144.493627,473.481557 144.665149,473.526479 144.899292,473.526479 C145.062649,473.526479 145.221918,473.489725 145.377107,473.416214 C145.532295,473.342704 145.675229,473.240608 145.805914,473.109923 C145.936599,472.979238 146.053669,472.822691 146.157128,472.640277 C146.260587,472.457863 146.344986,472.260477 146.410329,472.048114 L147.112756,472.048114 Z M151.6622,472.668864 C151.575076,473.153487 151.438948,473.553703 151.253812,473.869525 C151.068675,474.185347 150.848147,474.438545 150.592223,474.629127 C150.336298,474.819709 150.053152,474.953115 149.742776,475.029347 C149.432399,475.10558 149.108414,475.143696 148.770812,475.143696 C148.378757,475.143696 148.023463,475.093329 147.704919,474.992593 C147.386375,474.891856 147.114118,474.735309 146.888143,474.522946 C146.662167,474.310583 146.486562,474.036966 146.361322,473.702086 C146.236082,473.367206 146.173463,472.962906 146.173463,472.489173 C146.173463,472.167906 146.206134,471.797638 146.271477,471.378358 C146.336819,470.959077 146.440276,470.528913 146.581852,470.087851 C146.723427,469.64679 146.911283,469.213903 147.145427,468.789177 C147.379571,468.364451 147.662717,467.984654 147.994874,467.649774 C148.327032,467.314894 148.716358,467.045361 149.162864,466.841166 C149.609371,466.636971 150.11849,466.534875 150.690236,466.534875 C151.065955,466.534875 151.372243,466.579797 151.609109,466.669643 C151.845976,466.759489 152.033832,466.87792 152.172685,467.02494 C152.311538,467.171961 152.406827,467.342121 152.458557,467.535425 C152.510286,467.72873 152.53615,467.928838 152.53615,468.135756 C152.53615,468.620379 152.42997,469.070963 152.217608,469.487521 C152.005245,469.904079 151.720737,470.26754 151.364076,470.577917 C151.007416,470.888293 150.59767,471.138769 150.134828,471.329351 C149.671986,471.519933 149.190093,471.631558 148.689134,471.664229 C148.678244,471.756798 148.668715,471.845281 148.660547,471.929682 C148.652379,472.014082 148.648295,472.094398 148.648295,472.170631 C148.648295,472.437446 148.675521,472.660695 148.729973,472.840387 C148.784425,473.020079 148.857934,473.163013 148.950503,473.269195 C149.043071,473.375376 149.151973,473.450247 149.277213,473.493808 C149.402453,473.53737 149.538581,473.55915 149.685601,473.55915 C149.848957,473.55915 150.019117,473.534647 150.196086,473.48564 C150.373055,473.436634 150.547299,473.371292 150.718823,473.289614 C150.890347,473.207936 151.057784,473.114008 151.221141,473.007826 C151.384497,472.901645 151.531515,472.788659 151.6622,472.668864 Z M148.803483,470.863789 C149.12475,470.852898 149.432399,470.767138 149.72644,470.606504 C150.020481,470.445871 150.280485,470.238956 150.506461,469.985754 C150.732437,469.732552 150.912126,469.4426 151.045534,469.115888 C151.178941,468.789175 151.245644,468.451578 151.245644,468.103085 C151.245644,467.896167 151.215696,467.730091 151.155798,467.604851 C151.095901,467.479612 150.986999,467.416993 150.829088,467.416993 C150.616725,467.416993 150.408449,467.521812 150.204254,467.731452 C150.000059,467.941092 149.80948,468.211987 149.632511,468.544144 C149.455542,468.876301 149.294911,469.24657 149.150613,469.65496 C149.006315,470.06335 148.890606,470.466289 148.803483,470.863789 Z M164.91031,472.203302 C164.687057,472.764157 164.384853,473.241967 164.003689,473.636744 C163.622524,474.031521 163.210057,474.352783 162.766273,474.60054 C162.322489,474.848297 161.870544,475.029347 161.410424,475.143696 C160.950304,475.258045 160.526946,475.315219 160.140337,475.315219 C159.519584,475.315219 158.980517,475.24171 158.52312,475.09469 C158.065723,474.947669 157.685926,474.710806 157.383717,474.384094 C157.081509,474.057382 156.855536,473.632663 156.705793,473.109923 C156.55605,472.587184 156.481179,471.950105 156.481179,471.198667 C156.481179,470.817503 156.504321,470.402312 156.550605,469.953083 C156.59689,469.503854 156.67176,469.039657 156.775219,468.56048 C156.878678,468.081302 157.010722,467.599409 157.171355,467.114786 C157.331989,466.630163 157.526652,466.163244 157.75535,465.714014 C157.984049,465.264785 158.248137,464.84415 158.547623,464.452095 C158.847109,464.060041 159.184707,463.719721 159.560426,463.431125 C159.936145,463.142529 160.352697,462.915195 160.810094,462.749117 C161.267491,462.583038 161.771164,462.5 162.32113,462.5 C162.707739,462.5 163.071201,462.5422 163.411526,462.6266 C163.751851,462.711001 164.04861,462.843045 164.301812,463.022737 C164.555014,463.202428 164.753761,463.433846 164.898059,463.716997 C165.042356,464.000147 165.114504,464.340467 165.114504,464.737967 C165.114504,464.96122 165.094085,465.166773 165.053246,465.354633 C165.012407,465.542492 164.944343,465.705846 164.849052,465.844699 C164.753761,465.983551 164.631246,466.091092 164.481503,466.167325 C164.33176,466.243558 164.150709,466.281674 163.938347,466.281674 C163.807662,466.281674 163.65656,466.257171 163.485036,466.208164 C163.313512,466.159157 163.148797,466.039365 162.990886,465.848783 C163.0889,465.799776 163.184189,465.722183 163.276758,465.616001 C163.369326,465.50982 163.451003,465.387305 163.521791,465.248452 C163.592578,465.109599 163.649752,464.958497 163.693314,464.795141 C163.736875,464.631785 163.758656,464.468432 163.758656,464.305075 C163.758656,464.174391 163.740959,464.04643 163.705565,463.921191 C163.670171,463.795951 163.611636,463.687049 163.529958,463.59448 C163.44828,463.501912 163.342101,463.427041 163.211416,463.369867 C163.080731,463.312692 162.922822,463.284105 162.737685,463.284105 C162.427309,463.284105 162.126466,463.398453 161.835148,463.627151 C161.543829,463.85585 161.268851,464.16486 161.010204,464.554192 C160.751557,464.943524 160.514694,465.39683 160.299608,465.914125 C160.084523,466.431419 159.90075,466.978653 159.748284,467.555845 C159.595819,468.133036 159.476026,468.726554 159.388903,469.336417 C159.30178,469.94628 159.258219,470.534353 159.258219,471.100654 C159.258219,471.487263 159.286806,471.839835 159.34398,472.158379 C159.401155,472.476923 159.504612,472.750541 159.654355,472.979239 C159.804098,473.207938 160.00829,473.386265 160.266937,473.514228 C160.525584,473.64219 160.859098,473.70617 161.267488,473.70617 C161.926358,473.70617 162.536211,473.559152 163.097067,473.265111 C163.657923,472.97107 164.134371,472.559963 164.526425,472.031779 L164.91031,472.203302 Z M169.647612,472.048114 C169.489702,472.500066 169.314096,472.892115 169.120792,473.224272 C168.927487,473.556429 168.726018,473.836853 168.516377,474.065551 C168.306737,474.29425 168.091655,474.479384 167.871124,474.620959 C167.650593,474.762535 167.436872,474.871437 167.229955,474.94767 C167.023037,475.023903 166.825651,475.075631 166.637792,475.102857 C166.449933,475.130083 166.282495,475.143696 166.135475,475.143696 C165.884995,475.143696 165.650855,475.10558 165.433047,475.029347 C165.215239,474.953115 165.026021,474.833322 164.865388,474.669966 C164.704754,474.50661 164.578155,474.299695 164.485587,474.049216 C164.393018,473.798737 164.346735,473.496532 164.346735,473.142594 C164.346735,472.990129 164.357625,472.822691 164.379406,472.640277 C164.401187,472.457863 164.433857,472.260477 164.477419,472.048114 L166.266159,463.66799 L168.740991,463.333112 L166.821567,472.366657 C166.794341,472.459225 166.776644,472.550431 166.768476,472.640277 C166.760308,472.730123 166.756225,472.818606 166.756225,472.905729 C166.756225,473.139873 166.810676,473.301865 166.91958,473.391711 C167.028484,473.481557 167.200005,473.526479 167.434149,473.526479 C167.597505,473.526479 167.756775,473.489725 167.911963,473.416214 C168.067151,473.342704 168.210086,473.240608 168.34077,473.109923 C168.471455,472.979238 168.588525,472.822691 168.691984,472.640277 C168.795443,472.457863 168.879842,472.260477 168.945185,472.048114 L169.647612,472.048114 Z M178.346279,468.691164 C178.019567,469.034212 177.59757,469.325526 177.080276,469.565114 C176.562982,469.804703 175.996689,469.976225 175.381382,470.079683 C175.316039,470.852902 175.16766,471.549878 174.936239,472.170631 C174.704817,472.791384 174.412142,473.31956 174.058204,473.755177 C173.704266,474.190793 173.298604,474.525668 172.841207,474.759811 C172.383811,474.993955 171.899195,475.111025 171.387346,475.111025 C171.000736,475.111025 170.64272,475.06338 170.313285,474.968089 C169.98385,474.872798 169.700704,474.720335 169.463838,474.510695 C169.226971,474.301054 169.041837,474.028798 168.90843,473.693918 C168.775022,473.359038 168.70832,472.952016 168.70832,472.472838 C168.70832,472.146126 168.742352,471.774496 168.810417,471.357938 C168.878482,470.94138 168.987384,470.512577 169.137127,470.071516 C169.28687,469.630454 169.480172,469.198929 169.717038,468.776925 C169.953905,468.354922 170.242496,467.977848 170.582821,467.64569 C170.923146,467.313533 171.316556,467.045361 171.763063,466.841166 C172.209569,466.636971 172.718688,466.534875 173.290434,466.534875 C174.722523,466.534875 175.438556,467.425152 175.438556,469.205733 L175.438556,469.222068 C175.465782,469.232959 175.491646,469.238404 175.51615,469.238404 L175.618247,469.238404 C175.814274,469.238404 176.025272,469.209817 176.251248,469.152642 C176.477224,469.095468 176.704558,469.020597 176.933256,468.928029 C177.161955,468.835461 177.385205,468.727919 177.603013,468.605402 C177.820821,468.482885 178.019568,468.359009 178.19926,468.233769 L178.346279,468.691164 Z M173.992862,470.12869 C173.818616,470.085128 173.700184,469.999368 173.637564,469.871406 C173.574945,469.743443 173.543635,469.595064 173.543635,469.426262 C173.543635,469.192119 173.59128,469.000178 173.686571,468.850435 C173.781862,468.700692 173.908461,468.590428 174.066372,468.519641 C174.055481,468.339949 174.036424,468.188847 174.009198,468.06633 C173.981972,467.943813 173.943856,467.843078 173.894849,467.764123 C173.845842,467.685167 173.784584,467.629355 173.711074,467.596684 C173.637564,467.564012 173.543636,467.547677 173.429286,467.547677 C173.227814,467.547677 173.034512,467.62527 172.849375,467.780458 C172.664238,467.935647 172.488633,468.1412 172.322555,468.397124 C172.156476,468.653049 172.004013,468.945724 171.86516,469.275159 C171.726307,469.604594 171.607876,469.943552 171.509862,470.292045 C171.411849,470.640538 171.335617,470.984942 171.281165,471.325267 C171.226713,471.665592 171.199487,471.974603 171.199487,472.252308 C171.199487,472.530014 171.214461,472.755986 171.24441,472.930233 C171.274359,473.104479 171.323365,473.241968 171.39143,473.342705 C171.459495,473.443441 171.547978,473.512866 171.656882,473.550982 C171.765786,473.589099 171.899191,473.608157 172.057102,473.608157 C172.258575,473.608157 172.461406,473.518312 172.665601,473.338621 C172.869796,473.158929 173.059014,472.913899 173.23326,472.603522 C173.407507,472.293146 173.561331,471.9256 173.694739,471.500874 C173.828146,471.076148 173.92752,470.618758 173.992862,470.12869 Z M185.435897,472.048114 C185.277986,472.500066 185.106465,472.892115 184.921328,473.224272 C184.736191,473.556429 184.544251,473.836853 184.345501,474.065551 C184.146751,474.29425 183.94392,474.479384 183.737002,474.620959 C183.530085,474.762535 183.328615,474.871437 183.132588,474.94767 C182.936561,475.023903 182.748704,475.075631 182.569012,475.102857 C182.389321,475.130083 182.225967,475.143696 182.078947,475.143696 C181.599769,475.143696 181.218611,475.011652 180.93546,474.74756 C180.652309,474.483467 180.480788,474.087335 180.420891,473.55915 C180.208528,473.902198 179.993446,474.177177 179.775638,474.384094 C179.55783,474.591012 179.342747,474.751643 179.130385,474.865992 C178.918022,474.980341 178.711107,475.055212 178.509635,475.090606 C178.308162,475.125999 178.120305,475.143696 177.946059,475.143696 C177.69558,475.143696 177.461439,475.10558 177.243631,475.029347 C177.025823,474.953115 176.836605,474.833322 176.675972,474.669966 C176.515338,474.50661 176.388739,474.299695 176.296171,474.049216 C176.203603,473.798737 176.157319,473.496532 176.157319,473.142594 C176.157319,472.990129 176.168209,472.822691 176.18999,472.640277 C176.211771,472.457863 176.244442,472.260477 176.288003,472.048114 L177.423322,466.681894 L179.832812,466.681894 L178.632151,472.366657 C178.59948,472.540903 178.583144,472.698812 178.583144,472.840387 C178.583144,473.030969 178.618538,473.192962 178.689325,473.326369 C178.760113,473.459776 178.890796,473.526479 179.081378,473.526479 C179.244734,473.526479 179.394475,473.489725 179.530605,473.416214 C179.666735,473.342704 179.790611,473.240608 179.902238,473.109923 C180.013865,472.979238 180.111877,472.822691 180.196277,472.640277 C180.280678,472.457863 180.355549,472.260477 180.420891,472.048114 L181.55621,466.681894 L183.9657,466.681894 L182.765039,472.366657 C182.737813,472.459225 182.718755,472.550431 182.707864,472.640277 C182.696974,472.730123 182.691529,472.818606 182.691529,472.905729 C182.691529,473.139873 182.747341,473.301865 182.858968,473.391711 C182.970595,473.481557 183.143477,473.526479 183.377621,473.526479 C183.540977,473.526479 183.692079,473.489725 183.830932,473.416214 C183.969784,473.342704 184.096383,473.240608 184.210733,473.109923 C184.325082,472.979238 184.425817,472.822691 184.51294,472.640277 C184.600063,472.457863 184.673572,472.260477 184.733469,472.048114 L185.435897,472.048114 Z M190.704104,476.385196 C190.584309,476.984168 190.411427,477.468784 190.185451,477.839058 C189.959475,478.209331 189.707638,478.497923 189.429933,478.704841 C189.152228,478.911758 188.862275,479.050609 188.560066,479.121396 C188.257857,479.192184 187.967905,479.227577 187.690199,479.227577 C187.434275,479.227577 187.193328,479.193545 186.967352,479.12548 C186.741377,479.057415 186.543991,478.956681 186.37519,478.823273 C186.206388,478.689866 186.071622,478.521067 185.970885,478.316872 C185.870149,478.112677 185.819782,477.874453 185.819782,477.602193 C185.819782,477.2537 185.90282,476.94605 186.068899,476.679235 C186.234977,476.412421 186.448698,476.179642 186.710068,475.980892 C186.971438,475.782142 187.264113,475.611982 187.588102,475.470407 C187.912092,475.328831 188.231993,475.209039 188.547815,475.111025 L188.752009,474.228907 C188.506974,474.490276 188.219744,474.708081 187.89031,474.882328 C187.560875,475.056574 187.178355,475.143696 186.742739,475.143696 C186.454143,475.143696 186.176442,475.097413 185.909627,475.004844 C185.642812,474.912276 185.40595,474.759812 185.199032,474.547449 C184.992114,474.335087 184.826038,474.057385 184.700798,473.714338 C184.575559,473.37129 184.51294,472.952016 184.51294,472.456502 C184.51294,472.075338 184.551056,471.666954 184.627289,471.231338 C184.703521,470.795722 184.820591,470.360112 184.978502,469.924496 C185.136413,469.48888 185.333799,469.070967 185.570665,468.670744 C185.807531,468.270522 186.085233,467.916589 186.403777,467.608935 C186.722321,467.301281 187.08306,467.056251 187.486005,466.873837 C187.88895,466.691422 188.332728,466.600217 188.817351,466.600217 C189.291083,466.600217 189.635487,466.681894 189.850573,466.84525 C190.065658,467.008606 190.173199,467.210075 190.173199,467.449664 L190.173199,467.547677 L190.35289,466.681894 L192.76238,466.681894 L191.104324,474.441269 C191.360249,474.354145 191.591666,474.249327 191.798584,474.12681 C192.005502,474.004293 192.19472,473.849107 192.366243,473.661247 C192.537767,473.473388 192.692953,473.248777 192.831806,472.987407 C192.970659,472.726037 193.097258,472.412943 193.211607,472.048114 L193.914034,472.048114 C193.745233,472.603525 193.545125,473.06636 193.313704,473.436634 C193.082283,473.806908 192.835891,474.110473 192.574521,474.347339 C192.313152,474.584206 192.043618,474.765256 191.765913,474.890495 C191.488208,475.015735 191.218674,475.111025 190.957304,475.176367 L190.704104,476.385196 Z M190.018012,468.258272 C190.018012,468.209266 190.007121,468.149369 189.985341,468.078582 C189.96356,468.007794 189.926805,467.93973 189.875076,467.874388 C189.823346,467.809045 189.753921,467.753233 189.666798,467.706949 C189.579675,467.660664 189.46805,467.637523 189.33192,467.637523 C189.097776,467.637523 188.875887,467.713754 188.666247,467.86622 C188.456607,468.018686 188.264666,468.221516 188.09042,468.474718 C187.916173,468.72792 187.760987,469.01515 187.624857,469.336417 C187.488727,469.657684 187.373019,469.988475 187.277727,470.3288 C187.182436,470.669125 187.110289,471.004 187.061282,471.333435 C187.012275,471.66287 186.987772,471.958268 186.987772,472.219637 C186.987772,472.540904 187.01772,472.788657 187.077617,472.962904 C187.137515,473.13715 187.209662,473.266472 187.294063,473.350872 C187.378464,473.435273 187.469669,473.48564 187.567683,473.501976 C187.665697,473.518312 187.752819,473.526479 187.829051,473.526479 C187.943401,473.526479 188.065916,473.497892 188.196601,473.440718 C188.327286,473.383543 188.456607,473.300505 188.584569,473.191601 C188.712532,473.082697 188.82824,472.946569 188.931699,472.783213 C189.035158,472.619857 189.114112,472.432 189.168564,472.219637 L190.018012,468.258272 Z M188.376292,475.952305 C188.158483,476.033983 187.951569,476.122466 187.755542,476.217757 C187.559514,476.313048 187.386632,476.417866 187.236889,476.532216 C187.087146,476.646565 186.967353,476.773164 186.877507,476.912017 C186.787661,477.050869 186.742739,477.204694 186.742739,477.373495 C186.742739,477.433392 186.753629,477.496011 186.77541,477.561354 C186.797191,477.626696 186.831223,477.686593 186.877507,477.741045 C186.923791,477.795497 186.982326,477.839058 187.053114,477.871729 C187.123902,477.9044 187.208301,477.920735 187.306315,477.920735 C187.480561,477.920735 187.658889,477.799581 187.841303,477.55727 C188.023717,477.314958 188.169374,476.940606 188.278278,476.434203 L188.376292,475.952305 Z M192.558186,475.045683 L194.984011,463.66799 L197.458843,463.333112 L196.560389,467.531342 C196.740081,467.335314 196.918409,467.177406 197.095378,467.057611 C197.272347,466.937817 197.445229,466.84525 197.614031,466.779907 C197.782832,466.714565 197.942102,466.671004 198.091845,466.649223 C198.241588,466.627442 198.3818,466.616552 198.512485,466.616552 C198.779299,466.616552 199.027052,466.651946 199.255751,466.722733 C199.484449,466.793521 199.681835,466.905146 199.847914,467.057611 C200.013992,467.210077 200.143314,467.406101 200.235882,467.64569 C200.328451,467.885279 200.374734,468.171148 200.374734,468.503305 C200.374734,468.726559 200.354315,468.967505 200.313476,469.226152 C200.272637,469.484799 200.22227,469.748888 200.162373,470.018425 C200.102475,470.287963 200.038495,470.556135 199.97043,470.82295 C199.902365,471.089765 199.838385,471.345685 199.778488,471.59072 C199.718591,471.835754 199.668223,472.063087 199.627384,472.272728 C199.586545,472.482368 199.566126,472.666141 199.566126,472.824052 C199.566126,473.030969 199.613771,473.199768 199.709062,473.330453 C199.804353,473.461138 199.979958,473.526479 200.235882,473.526479 C200.502697,473.526479 200.687831,473.491086 200.79129,473.420298 C200.753174,473.72523 200.676942,473.985234 200.562593,474.20032 C200.448244,474.415405 200.308032,474.593733 200.141953,474.735308 C199.975875,474.876883 199.79074,474.980341 199.586545,475.045683 C199.38235,475.111025 199.168629,475.143696 198.945376,475.143696 C198.624109,475.143696 198.355937,475.090606 198.140851,474.984425 C197.925766,474.878243 197.752883,474.73667 197.622198,474.559701 C197.491514,474.382732 197.398947,474.181263 197.344495,473.955287 C197.290043,473.729311 197.262817,473.496532 197.262817,473.256943 C197.262817,472.973793 197.302294,472.643001 197.381249,472.26456 C197.460205,471.886118 197.545966,471.498154 197.638534,471.100654 C197.731102,470.703154 197.816863,470.319273 197.895819,469.948999 C197.974774,469.578726 198.014251,469.260186 198.014251,468.993371 C198.014251,468.421625 197.812782,468.135756 197.409837,468.135756 C197.268261,468.135756 197.136217,468.169788 197.0137,468.237853 C196.891183,468.305918 196.776836,468.401208 196.670654,468.523725 C196.564473,468.646242 196.467822,468.789176 196.380699,468.952532 C196.293575,469.115888 196.217344,469.290132 196.152001,469.475269 L194.967676,475.045683 L192.558186,475.045683 Z" id="Carrie-Clough"></path>
        </g>
    </g>
</svg>