<?xml version="1.0" encoding="UTF-8"?>
<svg width="316px" height="100px" viewBox="0 0 316 100" version="1.1" xmlns="http://www.w3.org/2000/svg" xmlns:xlink="http://www.w3.org/1999/xlink">
    <!-- Generator: Sketch 46.2 (44496) - http://www.bohemiancoding.com/sketch -->
    <title>CClough Copy</title>
    <desc>Created with Sketch.</desc>
    <defs></defs>
    <g id="Page-1" stroke="none" stroke-width="1" fill="none" fill-rule="evenodd">
        <g id="Artboard-5" transform="translate(-111.000000, -567.000000)" fill="#333333">
            <path d="M162.294922,625.007812 C160.96028,628.360694 159.153657,631.217111 156.875,633.577148 C154.596343,635.937186 152.130547,637.85774 149.477539,639.338867 C146.824531,640.819994 144.122735,641.90234 141.37207,642.585938 C138.621406,643.269535 136.090506,643.611328 133.779297,643.611328 C130.068341,643.611328 126.845717,643.171879 124.111328,642.292969 C121.376939,641.414058 119.106454,639.998057 117.299805,638.044922 C115.493155,636.091787 114.142257,633.55275 113.24707,630.427734 C112.351884,627.302719 111.904297,623.494163 111.904297,619.001953 C111.904297,616.723296 112.042642,614.241224 112.319336,611.555664 C112.59603,608.870104 113.043617,606.095066 113.662109,603.230469 C114.280602,600.365871 115.069982,597.485041 116.030273,594.587891 C116.990565,591.690741 118.15429,588.899427 119.521484,586.213867 C120.888679,583.528307 122.467439,581.013684 124.257812,578.669922 C126.048186,576.32616 128.066395,574.291675 130.3125,572.566406 C132.558605,570.841137 135.048814,569.482101 137.783203,568.489258 C140.517592,567.496414 143.528629,567 146.816406,567 C149.127616,567 151.300446,567.252276 153.334961,567.756836 C155.369476,568.261396 157.143547,569.050776 158.657227,570.125 C160.170906,571.199224 161.359045,572.582674 162.22168,574.275391 C163.084314,575.968107 163.515625,578.002592 163.515625,580.378906 C163.515625,581.713548 163.393556,582.942377 163.149414,584.06543 C162.905272,585.188482 162.498375,586.165035 161.928711,586.995117 C161.359047,587.825199 160.626632,588.468097 159.731445,588.923828 C158.836259,589.37956 157.753913,589.607422 156.484375,589.607422 C155.703121,589.607422 154.79981,589.460939 153.774414,589.167969 C152.749018,588.874999 151.764328,588.15886 150.820312,587.019531 C151.406253,586.726561 151.975909,586.262698 152.529297,585.62793 C153.082685,584.993161 153.570961,584.260746 153.994141,583.430664 C154.41732,582.600582 154.759113,581.697271 155.019531,580.720703 C155.279949,579.744136 155.410156,578.767583 155.410156,577.791016 C155.410156,577.009762 155.304363,576.244795 155.092773,575.496094 C154.881184,574.747392 154.531252,574.096357 154.042969,573.542969 C153.554685,572.989581 152.919926,572.541994 152.138672,572.200195 C151.357418,571.858397 150.413417,571.6875 149.306641,571.6875 C147.451163,571.6875 145.652678,572.371087 143.911133,573.738281 C142.169588,575.105476 140.525724,576.952788 138.979492,579.280273 C137.43326,581.607759 136.017259,584.317693 134.731445,587.410156 C133.445632,590.50262 132.34701,593.774071 131.435547,597.224609 C130.524084,600.675147 129.807945,604.223289 129.287109,607.869141 C128.766273,611.514992 128.505859,615.030582 128.505859,618.416016 C128.505859,620.727225 128.676756,622.834951 129.018555,624.739258 C129.360353,626.643564 129.978837,628.27929 130.874023,629.646484 C131.76921,631.013679 132.989901,632.079749 134.536133,632.844727 C136.082365,633.609704 138.07616,633.992188 140.517578,633.992188 C144.4564,633.992188 148.102197,633.11329 151.455078,631.355469 C154.807959,629.597647 157.656238,627.13999 160,623.982422 L162.294922,625.007812 Z M212.001953,625.007812 C210.667311,628.360694 208.860688,631.217111 206.582031,633.577148 C204.303374,635.937186 201.837578,637.85774 199.18457,639.338867 C196.531562,640.819994 193.829766,641.90234 191.079102,642.585938 C188.328437,643.269535 185.797538,643.611328 183.486328,643.611328 C179.775372,643.611328 176.552748,643.171879 173.818359,642.292969 C171.083971,641.414058 168.813486,639.998057 167.006836,638.044922 C165.200186,636.091787 163.849288,633.55275 162.954102,630.427734 C162.058915,627.302719 161.611328,623.494163 161.611328,619.001953 C161.611328,616.723296 161.749673,614.241224 162.026367,611.555664 C162.303061,608.870104 162.750648,606.095066 163.369141,603.230469 C163.987633,600.365871 164.777013,597.485041 165.737305,594.587891 C166.697596,591.690741 167.861321,588.899427 169.228516,586.213867 C170.59571,583.528307 172.17447,581.013684 173.964844,578.669922 C175.755217,576.32616 177.773426,574.291675 180.019531,572.566406 C182.265636,570.841137 184.755846,569.482101 187.490234,568.489258 C190.224623,567.496414 193.235661,567 196.523438,567 C198.834647,567 201.007477,567.252276 203.041992,567.756836 C205.076508,568.261396 206.850578,569.050776 208.364258,570.125 C209.877937,571.199224 211.066076,572.582674 211.928711,574.275391 C212.791345,575.968107 213.222656,578.002592 213.222656,580.378906 C213.222656,581.713548 213.100587,582.942377 212.856445,584.06543 C212.612303,585.188482 212.205406,586.165035 211.635742,586.995117 C211.066078,587.825199 210.333663,588.468097 209.438477,588.923828 C208.54329,589.37956 207.460944,589.607422 206.191406,589.607422 C205.410152,589.607422 204.506841,589.460939 203.481445,589.167969 C202.45605,588.874999 201.471359,588.15886 200.527344,587.019531 C201.113284,586.726561 201.68294,586.262698 202.236328,585.62793 C202.789716,584.993161 203.277993,584.260746 203.701172,583.430664 C204.124351,582.600582 204.466145,581.697271 204.726562,580.720703 C204.98698,579.744136 205.117188,578.767583 205.117188,577.791016 C205.117188,577.009762 205.011394,576.244795 204.799805,575.496094 C204.588215,574.747392 204.238284,574.096357 203.75,573.542969 C203.261716,572.989581 202.626957,572.541994 201.845703,572.200195 C201.064449,571.858397 200.120448,571.6875 199.013672,571.6875 C197.158194,571.6875 195.359709,572.371087 193.618164,573.738281 C191.876619,575.105476 190.232755,576.952788 188.686523,579.280273 C187.140292,581.607759 185.72429,584.317693 184.438477,587.410156 C183.152663,590.50262 182.054041,593.774071 181.142578,597.224609 C180.231115,600.675147 179.514977,604.223289 178.994141,607.869141 C178.473305,611.514992 178.212891,615.030582 178.212891,618.416016 C178.212891,620.727225 178.383787,622.834951 178.725586,624.739258 C179.067385,626.643564 179.685868,628.27929 180.581055,629.646484 C181.476241,631.013679 182.696932,632.079749 184.243164,632.844727 C185.789396,633.609704 187.783191,633.992188 190.224609,633.992188 C194.163431,633.992188 197.809228,633.11329 201.162109,631.355469 C204.514991,629.597647 207.36327,627.13999 209.707031,623.982422 L212.001953,625.007812 Z M240.322266,624.080078 C239.37825,626.781915 238.328456,629.125641 237.172852,631.111328 C236.017247,633.097015 234.812832,634.773431 233.55957,636.140625 C232.306309,637.507819 231.020514,638.614579 229.702148,639.460938 C228.383782,640.307296 227.106126,640.958331 225.869141,641.414062 C224.632155,641.869794 223.452154,642.179036 222.329102,642.341797 C221.206049,642.504558 220.205083,642.585938 219.326172,642.585938 C217.828769,642.585938 216.429043,642.358075 215.126953,641.902344 C213.824863,641.446612 212.69369,640.730474 211.733398,639.753906 C210.773107,638.777339 210.016279,637.540372 209.462891,636.042969 C208.909502,634.545565 208.632812,632.738943 208.632812,630.623047 C208.632812,629.711584 208.697916,628.710617 208.828125,627.620117 C208.958334,626.529617 209.153645,625.349616 209.414062,624.080078 L220.107422,573.982422 L234.902344,571.980469 L223.427734,625.984375 C223.264973,626.537763 223.15918,627.083005 223.110352,627.620117 C223.061523,628.157229 223.037109,628.686195 223.037109,629.207031 C223.037109,630.606778 223.362627,631.575193 224.013672,632.112305 C224.664717,632.649417 225.690097,632.917969 227.089844,632.917969 C228.066411,632.917969 229.01855,632.698244 229.946289,632.258789 C230.874028,631.819334 231.728512,631.208988 232.509766,630.427734 C233.29102,629.64648 233.990882,628.710617 234.609375,627.620117 C235.227868,626.529617 235.73242,625.349616 236.123047,624.080078 L240.322266,624.080078 Z M292.324219,604.011719 C290.371084,606.06251 287.848323,607.804029 284.755859,609.236328 C281.663396,610.668627 278.278013,611.694007 274.599609,612.3125 C274.208982,616.934919 273.321947,621.101544 271.938477,624.8125 C270.555006,628.523456 268.805349,631.680977 266.689453,634.285156 C264.573557,636.889336 262.148451,638.891269 259.414062,640.291016 C256.679674,641.690762 253.782567,642.390625 250.722656,642.390625 C248.411447,642.390625 246.271169,642.105797 244.301758,641.536133 C242.332347,640.966469 240.639656,640.055019 239.223633,638.801758 C237.80761,637.548496 236.70085,635.920908 235.90332,633.918945 C235.10579,631.916982 234.707031,629.483738 234.707031,626.619141 C234.707031,624.666006 234.91048,622.444348 235.317383,619.954102 C235.724286,617.463855 236.375321,614.900404 237.270508,612.263672 C238.165695,609.62694 239.321282,607.047213 240.737305,604.524414 C242.153327,602.001615 243.878571,599.747406 245.913086,597.761719 C247.947601,595.776032 250.299466,594.172858 252.96875,592.952148 C255.638034,591.731439 258.681624,591.121094 262.099609,591.121094 C270.66085,591.121094 274.941406,596.443306 274.941406,607.087891 L274.941406,607.185547 C275.104167,607.250651 275.258788,607.283203 275.405273,607.283203 L276.015625,607.283203 C277.187506,607.283203 278.448886,607.112306 279.799805,606.770508 C281.150723,606.428709 282.509759,605.981123 283.876953,605.427734 C285.244147,604.874346 286.57877,604.231449 287.880859,603.499023 C289.182949,602.766598 290.371088,602.026045 291.445312,601.277344 L292.324219,604.011719 Z M266.298828,612.605469 C265.257156,612.345051 264.549156,611.832361 264.174805,611.067383 C263.800454,610.302405 263.613281,609.41537 263.613281,608.40625 C263.613281,607.006503 263.898109,605.859054 264.467773,604.963867 C265.037438,604.06868 265.794266,603.409507 266.738281,602.986328 C266.673177,601.912104 266.559246,601.008793 266.396484,600.276367 C266.233723,599.543942 266.005861,598.941734 265.712891,598.469727 C265.41992,597.997719 265.053713,597.664063 264.614258,597.46875 C264.174802,597.273437 263.613285,597.175781 262.929688,597.175781 C261.725254,597.175781 260.569667,597.639644 259.462891,598.567383 C258.356114,599.495122 257.30632,600.723951 256.313477,602.253906 C255.320633,603.783862 254.409184,605.533519 253.579102,607.50293 C252.749019,609.472341 252.041019,611.498687 251.455078,613.582031 C250.869138,615.665375 250.413413,617.724274 250.087891,619.758789 C249.762368,621.793304 249.599609,623.640617 249.599609,625.300781 C249.599609,626.960946 249.689127,628.311844 249.868164,629.353516 C250.047201,630.395188 250.340167,631.217119 250.74707,631.819336 C251.153973,632.421552 251.682939,632.836587 252.333984,633.064453 C252.985029,633.292319 253.782547,633.40625 254.726562,633.40625 C255.930996,633.40625 257.143549,632.869146 258.364258,631.794922 C259.584967,630.720698 260.716141,629.255869 261.757812,627.400391 C262.799484,625.544913 263.719072,623.347669 264.516602,620.808594 C265.314132,618.269519 265.908201,615.535171 266.298828,612.605469 Z M334.707031,624.080078 C333.763016,626.781915 332.737636,629.125641 331.630859,631.111328 C330.524083,633.097015 329.376634,634.773431 328.188477,636.140625 C327.00032,637.507819 325.787767,638.614579 324.550781,639.460938 C323.313796,640.307296 322.109381,640.958331 320.9375,641.414062 C319.765619,641.869794 318.642583,642.179036 317.568359,642.341797 C316.494135,642.504558 315.517583,642.585938 314.638672,642.585938 C311.774074,642.585938 309.495451,641.796557 307.802734,640.217773 C306.110018,638.63899 305.084637,636.270849 304.726562,633.113281 C303.457025,635.164073 302.17123,636.807937 300.869141,638.044922 C299.567051,639.281907 298.281256,640.242184 297.011719,640.925781 C295.742181,641.609378 294.505214,642.056965 293.300781,642.268555 C292.096348,642.480144 290.973313,642.585938 289.931641,642.585938 C288.434237,642.585938 287.034512,642.358075 285.732422,641.902344 C284.430332,641.446612 283.299158,640.730474 282.338867,639.753906 C281.378576,638.777339 280.621748,637.540372 280.068359,636.042969 C279.514971,634.545565 279.238281,632.738943 279.238281,630.623047 C279.238281,629.711584 279.303385,628.710617 279.433594,627.620117 C279.563803,626.529617 279.759113,625.349616 280.019531,624.080078 L286.806641,592 L301.210938,592 L294.033203,625.984375 C293.83789,627.026047 293.740234,627.970048 293.740234,628.816406 C293.740234,629.955735 293.951821,630.92415 294.375,631.72168 C294.798179,632.51921 295.579421,632.917969 296.71875,632.917969 C297.695317,632.917969 298.590491,632.698244 299.404297,632.258789 C300.218103,631.819334 300.958656,631.208988 301.625977,630.427734 C302.293298,629.64648 302.879229,628.710617 303.383789,627.620117 C303.888349,626.529617 304.335936,625.349616 304.726562,624.080078 L311.513672,592 L325.917969,592 L318.740234,625.984375 C318.577473,626.537763 318.463542,627.083005 318.398438,627.620117 C318.333333,628.157229 318.300781,628.686195 318.300781,629.207031 C318.300781,630.606778 318.634437,631.575193 319.301758,632.112305 C319.969079,632.649417 321.002597,632.917969 322.402344,632.917969 C323.378911,632.917969 324.282222,632.698244 325.112305,632.258789 C325.942387,631.819334 326.699215,631.208988 327.382812,630.427734 C328.06641,629.64648 328.668617,628.710617 329.189453,627.620117 C329.710289,626.529617 330.149738,625.349616 330.507812,624.080078 L334.707031,624.080078 Z M366.201172,650.007812 C365.485022,653.58856 364.451504,656.485666 363.100586,658.699219 C361.749668,660.912771 360.244149,662.638015 358.583984,663.875 C356.92382,665.111985 355.190439,665.942055 353.383789,666.365234 C351.577139,666.788414 349.843758,667 348.183594,667 C346.653638,667 345.213223,666.796552 343.862305,666.389648 C342.511386,665.982745 341.331385,665.380538 340.322266,664.583008 C339.313146,663.785478 338.50749,662.776373 337.905273,661.555664 C337.303057,660.334955 337.001953,658.910815 337.001953,657.283203 C337.001953,655.199859 337.498367,653.360685 338.491211,651.765625 C339.484054,650.170565 340.761711,648.778977 342.324219,647.59082 C343.886727,646.402663 345.636384,645.385421 347.573242,644.539062 C349.510101,643.692704 351.422517,642.976565 353.310547,642.390625 L354.53125,637.117188 C353.066399,638.679695 351.349294,639.981766 349.379883,641.023438 C347.410472,642.065109 345.123711,642.585938 342.519531,642.585938 C340.794262,642.585938 339.134123,642.309248 337.539062,641.755859 C335.944002,641.202471 334.528001,640.291022 333.291016,639.021484 C332.05403,637.751947 331.061202,636.091807 330.3125,634.041016 C329.563798,631.990224 329.189453,629.483739 329.189453,626.521484 C329.189453,624.242827 329.417315,621.801445 329.873047,619.197266 C330.328778,616.593086 331.028641,613.988945 331.972656,611.384766 C332.916671,608.780586 334.096673,606.282239 335.512695,603.889648 C336.928718,601.497058 338.588858,599.381194 340.493164,597.541992 C342.39747,595.70279 344.554024,594.237961 346.962891,593.147461 C349.371757,592.056961 352.024725,591.511719 354.921875,591.511719 C357.75392,591.511719 359.812819,591.999995 361.098633,592.976562 C362.384447,593.95313 363.027344,595.157545 363.027344,596.589844 L363.027344,597.175781 L364.101562,592 L378.505859,592 L368.59375,638.386719 C370.123706,637.865883 371.507155,637.239261 372.744141,636.506836 C373.981126,635.77441 375.1123,634.846685 376.137695,633.723633 C377.163091,632.60058 378.090816,631.25782 378.920898,629.695312 C379.750981,628.132805 380.507809,626.261079 381.191406,624.080078 L385.390625,624.080078 C384.381505,627.400407 383.185228,630.167307 381.801758,632.380859 C380.418287,634.594412 378.94532,636.409173 377.382812,637.825195 C375.820305,639.241218 374.208993,640.323564 372.548828,641.072266 C370.888664,641.820967 369.277352,642.390623 367.714844,642.78125 L366.201172,650.007812 Z M362.099609,601.423828 C362.099609,601.130858 362.034506,600.772789 361.904297,600.349609 C361.774088,599.92643 361.554364,599.519533 361.245117,599.128906 C360.935871,598.738279 360.520836,598.404624 360,598.12793 C359.479164,597.851236 358.811853,597.712891 357.998047,597.712891 C356.5983,597.712891 355.271816,598.168615 354.018555,599.080078 C352.765293,599.991541 351.617844,601.204094 350.576172,602.717773 C349.5345,604.231453 348.606775,605.948558 347.792969,607.869141 C346.979163,609.789723 346.287438,611.767242 345.717773,613.801758 C345.148109,615.836273 344.716798,617.838206 344.423828,619.807617 C344.130858,621.777028 343.984375,623.542961 343.984375,625.105469 C343.984375,627.026051 344.16341,628.507156 344.521484,629.548828 C344.879559,630.5905 345.31087,631.363604 345.81543,631.868164 C346.31999,632.372724 346.865231,632.673828 347.451172,632.771484 C348.037112,632.869141 348.55794,632.917969 349.013672,632.917969 C349.697269,632.917969 350.429684,632.747072 351.210938,632.405273 C351.992191,632.063475 352.765296,631.567061 353.530273,630.916016 C354.295251,630.264971 354.986976,629.451177 355.605469,628.474609 C356.223961,627.498042 356.695962,626.375006 357.021484,625.105469 L362.099609,601.423828 Z M352.285156,647.419922 C350.983066,647.908206 349.7461,648.437172 348.574219,649.006836 C347.402338,649.5765 346.36882,650.203122 345.473633,650.886719 C344.578446,651.570316 343.862307,652.327144 343.325195,653.157227 C342.788083,653.987309 342.519531,654.906896 342.519531,655.916016 C342.519531,656.27409 342.584635,656.648436 342.714844,657.039062 C342.845053,657.429689 343.048501,657.787759 343.325195,658.113281 C343.601889,658.438804 343.951821,658.699218 344.375,658.894531 C344.798179,659.089845 345.302731,659.1875 345.888672,659.1875 C346.930344,659.1875 347.996414,658.463223 349.086914,657.014648 C350.177414,655.566073 351.048174,653.32814 351.699219,650.300781 L352.285156,647.419922 Z M377.285156,642 L391.787109,573.982422 L406.582031,571.980469 L401.210938,597.078125 C402.285162,595.906244 403.351232,594.962243 404.40918,594.246094 C405.467128,593.529944 406.500646,592.976564 407.509766,592.585938 C408.518885,592.195311 409.471024,591.934896 410.366211,591.804688 C411.261398,591.674479 412.099605,591.609375 412.880859,591.609375 C414.475919,591.609375 415.957024,591.820961 417.324219,592.244141 C418.691413,592.66732 419.871414,593.334631 420.864258,594.246094 C421.857101,595.157557 422.630206,596.32942 423.183594,597.761719 C423.736982,599.194018 424.013672,600.902985 424.013672,602.888672 C424.013672,604.223314 423.891603,605.663729 423.647461,607.209961 C423.403319,608.756193 423.102215,610.334953 422.744141,611.946289 C422.386066,613.557625 422.003583,615.160799 421.59668,616.755859 C421.189777,618.350919 420.807293,619.880852 420.449219,621.345703 C420.091144,622.810554 419.79004,624.16959 419.545898,625.422852 C419.301757,626.676113 419.179688,627.774735 419.179688,628.71875 C419.179688,629.955735 419.464515,630.96484 420.03418,631.746094 C420.603844,632.527348 421.653638,632.917969 423.183594,632.917969 C424.778654,632.917969 425.885414,632.706382 426.503906,632.283203 C426.276041,634.106129 425.820316,635.660475 425.136719,636.946289 C424.453122,638.232103 423.614914,639.298173 422.62207,640.144531 C421.629227,640.99089 420.522467,641.609373 419.301758,642 C418.081049,642.390627 416.803392,642.585938 415.46875,642.585938 C413.548167,642.585938 411.944993,642.268558 410.65918,641.633789 C409.373366,640.99902 408.339848,640.152675 407.558594,639.094727 C406.77734,638.036779 406.22396,636.832364 405.898438,635.481445 C405.572915,634.130527 405.410156,632.738939 405.410156,631.306641 C405.410156,629.613924 405.646156,627.636405 406.118164,625.374023 C406.590172,623.111642 407.102862,620.79233 407.65625,618.416016 C408.209638,616.039702 408.722328,613.744803 409.194336,611.53125 C409.666344,609.317697 409.902344,607.413419 409.902344,605.818359 C409.902344,602.400374 408.697929,600.691406 406.289062,600.691406 C405.442704,600.691406 404.653324,600.894855 403.920898,601.301758 C403.188473,601.708661 402.504886,602.278317 401.870117,603.010742 C401.235348,603.743168 400.657555,604.597651 400.136719,605.574219 C399.615883,606.550786 399.160158,607.592442 398.769531,608.699219 L391.689453,642 L377.285156,642 Z" id="CClough-Copy"></path>
        </g>
    </g>
</svg>