<?xml version="1.0" encoding="UTF-8"?>
<svg width="159px" height="31px" viewBox="0 0 159 31" version="1.1" xmlns="http://www.w3.org/2000/svg" xmlns:xlink="http://www.w3.org/1999/xlink">
    <!-- Generator: Sketch 46.2 (44496) - http://www.bohemiancoding.com/sketch -->
    <title>Carrie Clough</title>
    <desc>Created with Sketch.</desc>
    <defs></defs>
    <g id="Page-1" stroke="none" stroke-width="1" fill="none" fill-rule="evenodd">
        <g id="Artboard-5" transform="translate(-112.000000, -462.000000)" fill="#333333">
            <path d="M127.688477,479.902344 C127.288084,480.908208 126.746097,481.765133 126.0625,482.473145 C125.378903,483.181156 124.639164,483.757322 123.843262,484.20166 C123.047359,484.645998 122.236821,484.970702 121.411621,485.175781 C120.586422,485.38086 119.827152,485.483398 119.133789,485.483398 C118.020502,485.483398 117.053715,485.351564 116.233398,485.087891 C115.413082,484.824217 114.731936,484.399417 114.189941,483.813477 C113.647947,483.227536 113.242677,482.465825 112.974121,481.52832 C112.705565,480.590816 112.571289,479.448249 112.571289,478.100586 C112.571289,477.416989 112.612793,476.672367 112.695801,475.866699 C112.778809,475.061031 112.913085,474.22852 113.098633,473.369141 C113.284181,472.509761 113.520995,471.645512 113.809082,470.776367 C114.097169,469.907222 114.446287,469.069828 114.856445,468.26416 C115.266604,467.458492 115.740232,466.704105 116.277344,466.000977 C116.814456,465.297848 117.419919,464.687503 118.09375,464.169922 C118.767581,463.652341 119.514644,463.24463 120.334961,462.946777 C121.155278,462.648924 122.058589,462.5 123.044922,462.5 C123.738285,462.5 124.390134,462.575683 125.000488,462.727051 C125.610843,462.878419 126.143064,463.115233 126.597168,463.4375 C127.051272,463.759767 127.407714,464.174802 127.666504,464.682617 C127.925294,465.190432 128.054688,465.800778 128.054688,466.513672 C128.054688,466.914065 128.018067,467.282713 127.944824,467.619629 C127.871582,467.956545 127.749513,468.24951 127.578613,468.498535 C127.407714,468.74756 127.18799,468.940429 126.919434,469.077148 C126.650878,469.213868 126.326174,469.282227 125.945312,469.282227 C125.710936,469.282227 125.439943,469.238282 125.132324,469.150391 C124.824705,469.0625 124.529298,468.847658 124.246094,468.505859 C124.421876,468.417968 124.592773,468.27881 124.758789,468.088379 C124.924806,467.897948 125.071288,467.678224 125.198242,467.429199 C125.325196,467.180175 125.427734,466.909181 125.505859,466.616211 C125.583985,466.323241 125.623047,466.030275 125.623047,465.737305 C125.623047,465.502929 125.591309,465.273439 125.527832,465.048828 C125.464355,464.824218 125.359376,464.628907 125.212891,464.462891 C125.066406,464.296874 124.875978,464.162598 124.641602,464.060059 C124.407225,463.957519 124.124025,463.90625 123.791992,463.90625 C123.235349,463.90625 122.695803,464.111326 122.17334,464.521484 C121.650876,464.931643 121.157717,465.485836 120.693848,466.184082 C120.229978,466.882328 119.805178,467.695308 119.419434,468.623047 C119.033689,469.550786 118.704103,470.532221 118.430664,471.567383 C118.157225,472.602544 117.942384,473.666987 117.786133,474.760742 C117.629882,475.854498 117.551758,476.909175 117.551758,477.924805 C117.551758,478.618168 117.603027,479.250485 117.705566,479.821777 C117.808106,480.393069 117.993651,480.883787 118.262207,481.293945 C118.530763,481.704104 118.89697,482.023925 119.36084,482.253418 C119.824709,482.482911 120.422848,482.597656 121.155273,482.597656 C122.33692,482.597656 123.430659,482.333987 124.436523,481.806641 C125.442388,481.279294 126.296871,480.541997 127,479.594727 L127.688477,479.902344 Z M143.948242,479.624023 C143.665038,480.434574 143.357424,481.137692 143.025391,481.733398 C142.693358,482.329105 142.349123,482.832029 141.992676,483.242188 C141.636229,483.652346 141.272463,483.984374 140.901367,484.238281 C140.530272,484.492189 140.168947,484.687499 139.817383,484.824219 C139.465819,484.960938 139.128908,485.053711 138.806641,485.102539 C138.484373,485.151367 138.191408,485.175781 137.927734,485.175781 C137.078121,485.175781 136.401858,484.94385 135.898926,484.47998 C135.395994,484.016111 135.090821,483.330083 134.983398,482.421875 C134.739257,482.763674 134.470705,483.098143 134.177734,483.425293 C133.884764,483.752443 133.557619,484.045409 133.196289,484.304199 C132.834959,484.56299 132.432131,484.772948 131.987793,484.934082 C131.543455,485.095216 131.052737,485.175781 130.515625,485.175781 C129.998044,485.175781 129.500002,485.092774 129.021484,484.926758 C128.542966,484.760741 128.118166,484.487307 127.74707,484.106445 C127.375975,483.725584 127.078126,483.227542 126.853516,482.612305 C126.628905,481.997067 126.516602,481.245122 126.516602,480.356445 C126.516602,479.672848 126.58496,478.940434 126.72168,478.15918 C126.858399,477.377926 127.068358,476.596684 127.351562,475.81543 C127.634767,475.034176 127.988767,474.284672 128.413574,473.566895 C128.838381,472.849118 129.336423,472.214358 129.907715,471.662598 C130.479007,471.110837 131.125973,470.671388 131.848633,470.344238 C132.571293,470.017088 133.367183,469.853516 134.236328,469.853516 C135.085942,469.853516 135.703611,469.999999 136.089355,470.292969 C136.4751,470.585939 136.667969,470.947263 136.667969,471.376953 L136.667969,471.59668 L136.990234,470 L141.311523,470 L139.158203,480.195312 C139.109375,480.361329 139.075195,480.524902 139.055664,480.686035 C139.036133,480.847169 139.026367,481.005859 139.026367,481.162109 C139.026367,482.021489 139.436519,482.451172 140.256836,482.451172 C140.549806,482.451172 140.8208,482.375489 141.069824,482.224121 C141.318849,482.072753 141.545897,481.870118 141.750977,481.616211 C141.956056,481.362303 142.136718,481.062013 142.292969,480.715332 C142.44922,480.368651 142.581054,480.004885 142.688477,479.624023 L143.948242,479.624023 Z M136.389648,472.856445 C136.389648,472.768554 136.370117,472.658692 136.331055,472.526855 C136.291992,472.395019 136.226075,472.268067 136.133301,472.145996 C136.040527,472.023925 135.916016,471.921387 135.759766,471.838379 C135.603515,471.755371 135.403322,471.713867 135.15918,471.713867 C134.739256,471.713867 134.34131,471.850585 133.965332,472.124023 C133.589354,472.397462 133.245119,472.761228 132.932617,473.215332 C132.620116,473.669436 132.341798,474.184567 132.097656,474.760742 C131.853514,475.336917 131.645997,475.930173 131.475098,476.540527 C131.304198,477.150882 131.174805,477.751462 131.086914,478.342285 C130.999023,478.933108 130.955078,479.462888 130.955078,479.931641 C130.955078,480.507815 131.008789,480.952147 131.116211,481.264648 C131.223633,481.57715 131.353027,481.809081 131.504395,481.960449 C131.655762,482.111817 131.819335,482.202148 131.995117,482.231445 C132.170899,482.260742 132.327148,482.275391 132.463867,482.275391 C132.688478,482.275391 132.925292,482.219239 133.174316,482.106934 C133.423341,481.994628 133.662597,481.828614 133.89209,481.608887 C134.121583,481.389159 134.331542,481.113283 134.521973,480.78125 C134.712403,480.449217 134.856445,480.063479 134.954102,479.624023 L136.389648,472.856445 Z M141.545898,485 L144.724609,470 L149.045898,470 L148.665039,471.860352 C148.928712,471.625975 149.197264,471.396485 149.470703,471.171875 C149.744142,470.947265 150.029784,470.749513 150.327637,470.578613 C150.62549,470.407714 150.935545,470.268555 151.257812,470.161133 C151.58008,470.05371 151.921873,470 152.283203,470 C152.625002,470 152.925292,470.063476 153.184082,470.19043 C153.442872,470.317383 153.660155,470.483397 153.835938,470.688477 C154.01172,470.893556 154.143554,471.132811 154.231445,471.40625 C154.319336,471.679689 154.363281,471.962889 154.363281,472.255859 C154.363281,472.519533 154.319336,472.78076 154.231445,473.039551 C154.143554,473.298341 154.009278,473.530272 153.828613,473.735352 C153.647948,473.940431 153.4209,474.108886 153.147461,474.240723 C152.874022,474.372559 152.556642,474.438477 152.195312,474.438477 C151.912108,474.438477 151.694825,474.389649 151.543457,474.291992 C151.392089,474.194335 151.277344,474.072266 151.199219,473.925781 C151.121093,473.779296 151.064942,473.620606 151.030762,473.449707 C150.996582,473.278808 150.959961,473.120118 150.920898,472.973633 C150.881836,472.827148 150.830567,472.705079 150.76709,472.607422 C150.703613,472.509765 150.598634,472.460938 150.452148,472.460938 C149.993162,472.460938 149.607423,472.565917 149.294922,472.775879 C148.98242,472.985841 148.640627,473.261717 148.269531,473.603516 L145.867188,485 L141.545898,485 Z M152.825195,485 L156.003906,470 L160.325195,470 L159.944336,471.860352 C160.208009,471.625975 160.476561,471.396485 160.75,471.171875 C161.023439,470.947265 161.309081,470.749513 161.606934,470.578613 C161.904787,470.407714 162.214842,470.268555 162.537109,470.161133 C162.859377,470.05371 163.20117,470 163.5625,470 C163.904299,470 164.204589,470.063476 164.463379,470.19043 C164.722169,470.317383 164.939452,470.483397 165.115234,470.688477 C165.291017,470.893556 165.422851,471.132811 165.510742,471.40625 C165.598633,471.679689 165.642578,471.962889 165.642578,472.255859 C165.642578,472.519533 165.598633,472.78076 165.510742,473.039551 C165.422851,473.298341 165.288575,473.530272 165.10791,473.735352 C164.927245,473.940431 164.700197,474.108886 164.426758,474.240723 C164.153319,474.372559 163.835939,474.438477 163.474609,474.438477 C163.191405,474.438477 162.974122,474.389649 162.822754,474.291992 C162.671386,474.194335 162.556641,474.072266 162.478516,473.925781 C162.40039,473.779296 162.344238,473.620606 162.310059,473.449707 C162.275879,473.278808 162.239258,473.120118 162.200195,472.973633 C162.161133,472.827148 162.109864,472.705079 162.046387,472.607422 C161.98291,472.509765 161.87793,472.460938 161.731445,472.460938 C161.272459,472.460938 160.88672,472.565917 160.574219,472.775879 C160.261717,472.985841 159.919924,473.261717 159.548828,473.603516 L157.146484,485 L152.825195,485 Z M172.65918,466.015625 C172.65918,466.347658 172.595704,466.657713 172.46875,466.945801 C172.341796,467.233888 172.168458,467.482909 171.94873,467.692871 C171.729003,467.902833 171.475099,468.068847 171.187012,468.190918 C170.898924,468.312989 170.588869,468.374023 170.256836,468.374023 C169.924803,468.374023 169.614748,468.312989 169.32666,468.190918 C169.038573,468.068847 168.78711,467.902833 168.572266,467.692871 C168.357421,467.482909 168.188965,467.233888 168.066895,466.945801 C167.944824,466.657713 167.883789,466.347658 167.883789,466.015625 C167.883789,465.683592 167.944824,465.373537 168.066895,465.085449 C168.188965,464.797362 168.357421,464.543458 168.572266,464.32373 C168.78711,464.104003 169.038573,463.930665 169.32666,463.803711 C169.614748,463.676757 169.924803,463.613281 170.256836,463.613281 C170.588869,463.613281 170.898924,463.676757 171.187012,463.803711 C171.475099,463.930665 171.729003,464.104003 171.94873,464.32373 C172.168458,464.543458 172.341796,464.797362 172.46875,465.085449 C172.595704,465.373537 172.65918,465.683592 172.65918,466.015625 Z M174.519531,479.624023 C174.236327,480.434574 173.921388,481.137692 173.574707,481.733398 C173.228026,482.329105 172.866701,482.832029 172.490723,483.242188 C172.114744,483.652346 171.729006,483.984374 171.333496,484.238281 C170.937986,484.492189 170.554689,484.687499 170.183594,484.824219 C169.812498,484.960938 169.458498,485.053711 169.121582,485.102539 C168.784666,485.151367 168.484376,485.175781 168.220703,485.175781 C167.771482,485.175781 167.351564,485.107423 166.960938,484.970703 C166.570311,484.833984 166.230958,484.619142 165.942871,484.326172 C165.654784,484.033202 165.427735,483.662112 165.261719,483.212891 C165.095702,482.76367 165.012695,482.221683 165.012695,481.586914 C165.012695,481.313475 165.032226,481.013185 165.071289,480.686035 C165.110352,480.358885 165.168945,480.004885 165.24707,479.624023 L167.283203,470 L171.604492,470 L169.451172,480.195312 C169.402344,480.361329 169.370606,480.524902 169.355957,480.686035 C169.341309,480.847169 169.333984,481.005859 169.333984,481.162109 C169.333984,481.582033 169.43164,481.872558 169.626953,482.033691 C169.822267,482.194825 170.129881,482.275391 170.549805,482.275391 C170.842775,482.275391 171.128417,482.209473 171.406738,482.077637 C171.68506,481.9458 171.941405,481.762696 172.175781,481.52832 C172.410157,481.293944 172.620116,481.013185 172.805664,480.686035 C172.991212,480.358885 173.142578,480.004885 173.259766,479.624023 L174.519531,479.624023 Z M182.678711,480.737305 C182.52246,481.60645 182.278322,482.324216 181.946289,482.890625 C181.614256,483.457034 181.218752,483.911131 180.759766,484.25293 C180.300779,484.594728 179.792972,484.833984 179.236328,484.970703 C178.679685,485.107423 178.098636,485.175781 177.493164,485.175781 C176.790036,485.175781 176.152835,485.08545 175.581543,484.904785 C175.010251,484.72412 174.521975,484.443361 174.116699,484.0625 C173.711424,483.681639 173.396485,483.190921 173.171875,482.590332 C172.947265,481.989743 172.834961,481.264653 172.834961,480.415039 C172.834961,479.838864 172.893554,479.174808 173.010742,478.422852 C173.12793,477.670895 173.313475,476.899418 173.567383,476.108398 C173.82129,475.317379 174.158201,474.541019 174.578125,473.779297 C174.998049,473.017574 175.505856,472.336429 176.101562,471.73584 C176.697269,471.135251 177.395504,470.651857 178.196289,470.285645 C178.997074,469.919432 179.910151,469.736328 180.935547,469.736328 C181.609378,469.736328 182.158689,469.816894 182.583496,469.978027 C183.008303,470.139161 183.345214,470.351561 183.594238,470.615234 C183.843263,470.878908 184.01416,471.18408 184.106934,471.530762 C184.199707,471.877443 184.246094,472.236326 184.246094,472.607422 C184.246094,473.476567 184.055666,474.284664 183.674805,475.031738 C183.293943,475.778812 182.783695,476.430661 182.144043,476.987305 C181.504391,477.543948 180.769535,477.993162 179.939453,478.334961 C179.109371,478.67676 178.245122,478.876953 177.34668,478.935547 C177.327148,479.101563 177.310059,479.260253 177.29541,479.411621 C177.280762,479.562989 177.273438,479.707031 177.273438,479.84375 C177.273438,480.322268 177.322265,480.722655 177.419922,481.044922 C177.517579,481.367189 177.649413,481.623534 177.81543,481.813965 C177.981446,482.004395 178.176757,482.138671 178.401367,482.216797 C178.625978,482.294922 178.870116,482.333984 179.133789,482.333984 C179.426759,482.333984 179.731932,482.29004 180.049316,482.202148 C180.366701,482.114257 180.679198,481.997071 180.986816,481.850586 C181.294435,481.704101 181.594725,481.535645 181.887695,481.345215 C182.180666,481.154784 182.444335,480.95215 182.678711,480.737305 Z M177.551758,477.5 C178.127933,477.480469 178.679685,477.326662 179.207031,477.038574 C179.734378,476.750487 180.200682,476.379397 180.605957,475.925293 C181.011232,475.471189 181.333495,474.951175 181.572754,474.365234 C181.812013,473.779294 181.931641,473.173831 181.931641,472.548828 C181.931641,472.177733 181.87793,471.879884 181.770508,471.655273 C181.663085,471.430663 181.467775,471.318359 181.18457,471.318359 C180.803709,471.318359 180.430178,471.506346 180.063965,471.882324 C179.697752,472.258303 179.355959,472.744138 179.038574,473.339844 C178.72119,473.93555 178.433107,474.599606 178.174316,475.332031 C177.915526,476.064457 177.708009,476.787106 177.551758,477.5 Z M206.438477,479.902344 C206.038084,480.908208 205.496097,481.765133 204.8125,482.473145 C204.128903,483.181156 203.389164,483.757322 202.593262,484.20166 C201.797359,484.645998 200.986821,484.970702 200.161621,485.175781 C199.336422,485.38086 198.577152,485.483398 197.883789,485.483398 C196.770502,485.483398 195.803715,485.351564 194.983398,485.087891 C194.163082,484.824217 193.481936,484.399417 192.939941,483.813477 C192.397947,483.227536 191.992677,482.465825 191.724121,481.52832 C191.455565,480.590816 191.321289,479.448249 191.321289,478.100586 C191.321289,477.416989 191.362793,476.672367 191.445801,475.866699 C191.528809,475.061031 191.663085,474.22852 191.848633,473.369141 C192.034181,472.509761 192.270995,471.645512 192.559082,470.776367 C192.847169,469.907222 193.196287,469.069828 193.606445,468.26416 C194.016604,467.458492 194.490232,466.704105 195.027344,466.000977 C195.564456,465.297848 196.169919,464.687503 196.84375,464.169922 C197.517581,463.652341 198.264644,463.24463 199.084961,462.946777 C199.905278,462.648924 200.808589,462.5 201.794922,462.5 C202.488285,462.5 203.140134,462.575683 203.750488,462.727051 C204.360843,462.878419 204.893064,463.115233 205.347168,463.4375 C205.801272,463.759767 206.157714,464.174802 206.416504,464.682617 C206.675294,465.190432 206.804688,465.800778 206.804688,466.513672 C206.804688,466.914065 206.768067,467.282713 206.694824,467.619629 C206.621582,467.956545 206.499513,468.24951 206.328613,468.498535 C206.157714,468.74756 205.93799,468.940429 205.669434,469.077148 C205.400878,469.213868 205.076174,469.282227 204.695312,469.282227 C204.460936,469.282227 204.189943,469.238282 203.882324,469.150391 C203.574705,469.0625 203.279298,468.847658 202.996094,468.505859 C203.171876,468.417968 203.342773,468.27881 203.508789,468.088379 C203.674806,467.897948 203.821288,467.678224 203.948242,467.429199 C204.075196,467.180175 204.177734,466.909181 204.255859,466.616211 C204.333985,466.323241 204.373047,466.030275 204.373047,465.737305 C204.373047,465.502929 204.341309,465.273439 204.277832,465.048828 C204.214355,464.824218 204.109376,464.628907 203.962891,464.462891 C203.816406,464.296874 203.625978,464.162598 203.391602,464.060059 C203.157225,463.957519 202.874025,463.90625 202.541992,463.90625 C201.985349,463.90625 201.445803,464.111326 200.92334,464.521484 C200.400876,464.931643 199.907717,465.485836 199.443848,466.184082 C198.979978,466.882328 198.555178,467.695308 198.169434,468.623047 C197.783689,469.550786 197.454103,470.532221 197.180664,471.567383 C196.907225,472.602544 196.692384,473.666987 196.536133,474.760742 C196.379882,475.854498 196.301758,476.909175 196.301758,477.924805 C196.301758,478.618168 196.353027,479.250485 196.455566,479.821777 C196.558106,480.393069 196.743651,480.883787 197.012207,481.293945 C197.280763,481.704104 197.64697,482.023925 198.11084,482.253418 C198.574709,482.482911 199.172848,482.597656 199.905273,482.597656 C201.08692,482.597656 202.180659,482.333987 203.186523,481.806641 C204.192388,481.279294 205.046871,480.541997 205.75,479.594727 L206.438477,479.902344 Z M214.93457,479.624023 C214.651366,480.434574 214.336428,481.137692 213.989746,481.733398 C213.643065,482.329105 213.28174,482.832029 212.905762,483.242188 C212.529783,483.652346 212.144045,483.984374 211.748535,484.238281 C211.353025,484.492189 210.969728,484.687499 210.598633,484.824219 C210.227537,484.960938 209.873537,485.053711 209.536621,485.102539 C209.199705,485.151367 208.899415,485.175781 208.635742,485.175781 C208.186521,485.175781 207.766604,485.107423 207.375977,484.970703 C206.98535,484.833984 206.645998,484.619142 206.35791,484.326172 C206.069823,484.033202 205.842774,483.662112 205.676758,483.212891 C205.510741,482.76367 205.427734,482.221683 205.427734,481.586914 C205.427734,481.313475 205.447265,481.013185 205.486328,480.686035 C205.525391,480.358885 205.583984,480.004885 205.662109,479.624023 L208.870117,464.594727 L213.308594,463.994141 L209.866211,480.195312 C209.817383,480.361329 209.785645,480.524902 209.770996,480.686035 C209.756348,480.847169 209.749023,481.005859 209.749023,481.162109 C209.749023,481.582033 209.846679,481.872558 210.041992,482.033691 C210.237306,482.194825 210.54492,482.275391 210.964844,482.275391 C211.257814,482.275391 211.543456,482.209473 211.821777,482.077637 C212.100099,481.9458 212.356444,481.762696 212.59082,481.52832 C212.825196,481.293944 213.035155,481.013185 213.220703,480.686035 C213.406251,480.358885 213.557617,480.004885 213.674805,479.624023 L214.93457,479.624023 Z M230.535156,473.603516 C229.949216,474.218753 229.192387,474.741209 228.264648,475.170898 C227.336909,475.600588 226.321295,475.908202 225.217773,476.09375 C225.100585,477.480476 224.834475,478.730463 224.419434,479.84375 C224.004392,480.957037 223.479495,481.904293 222.844727,482.685547 C222.209958,483.466801 221.482426,484.067381 220.662109,484.487305 C219.841793,484.907229 218.972661,485.117188 218.054688,485.117188 C217.361325,485.117188 216.719241,485.031739 216.128418,484.86084 C215.537595,484.689941 215.029787,484.416506 214.60498,484.040527 C214.180174,483.664549 213.848146,483.176273 213.608887,482.575684 C213.369628,481.975095 213.25,481.245121 213.25,480.385742 C213.25,479.799802 213.311035,479.133305 213.433105,478.38623 C213.555176,477.639156 213.750487,476.870121 214.019043,476.079102 C214.287599,475.288082 214.634275,474.514164 215.059082,473.757324 C215.483889,473.000484 216.001462,472.324222 216.611816,471.728516 C217.222171,471.13281 217.92773,470.651857 218.728516,470.285645 C219.529301,469.919432 220.442378,469.736328 221.467773,469.736328 C224.036146,469.736328 225.320312,471.332992 225.320312,474.526367 L225.320312,474.555664 C225.369141,474.575195 225.415527,474.584961 225.459473,474.584961 L225.642578,474.584961 C225.994142,474.584961 226.372557,474.533692 226.777832,474.431152 C227.183107,474.328613 227.590818,474.194337 228.000977,474.02832 C228.411135,473.862304 228.811521,473.669435 229.202148,473.449707 C229.592775,473.229979 229.949217,473.007814 230.271484,472.783203 L230.535156,473.603516 Z M222.727539,476.181641 C222.415037,476.103515 222.202637,475.949708 222.090332,475.720215 C221.978027,475.490722 221.921875,475.224611 221.921875,474.921875 C221.921875,474.501951 222.007323,474.157716 222.178223,473.88916 C222.349122,473.620604 222.57617,473.422852 222.859375,473.295898 C222.839844,472.973631 222.805664,472.702638 222.756836,472.48291 C222.708008,472.263182 222.639649,472.08252 222.551758,471.940918 C222.463867,471.799316 222.354005,471.699219 222.222168,471.640625 C222.090331,471.582031 221.921876,471.552734 221.716797,471.552734 C221.355467,471.552734 221.008791,471.691893 220.676758,471.970215 C220.344725,472.248537 220.029787,472.617185 219.731934,473.076172 C219.434081,473.535159 219.160646,474.060056 218.911621,474.650879 C218.662596,475.241702 218.450196,475.849606 218.274414,476.474609 C218.098632,477.099612 217.961915,477.717282 217.864258,478.327637 C217.766601,478.937991 217.717773,479.492185 217.717773,479.990234 C217.717773,480.488284 217.744629,480.893553 217.79834,481.206055 C217.852051,481.518556 217.939941,481.765136 218.062012,481.945801 C218.184083,482.126466 218.342772,482.250976 218.538086,482.319336 C218.733399,482.387696 218.972655,482.421875 219.255859,482.421875 C219.617189,482.421875 219.980955,482.260744 220.347168,481.938477 C220.713381,481.616209 221.052733,481.176761 221.365234,480.620117 C221.677736,480.063474 221.953612,479.404301 222.192871,478.642578 C222.43213,477.880856 222.610351,477.060551 222.727539,476.181641 Z M243.25,479.624023 C242.966795,480.434574 242.659181,481.137692 242.327148,481.733398 C241.995116,482.329105 241.650881,482.832029 241.294434,483.242188 C240.937986,483.652346 240.574221,483.984374 240.203125,484.238281 C239.832029,484.492189 239.470705,484.687499 239.119141,484.824219 C238.767576,484.960938 238.430666,485.053711 238.108398,485.102539 C237.786131,485.151367 237.493165,485.175781 237.229492,485.175781 C236.370113,485.175781 235.686526,484.938967 235.178711,484.465332 C234.670896,483.991697 234.363282,483.281255 234.255859,482.333984 C233.874998,482.949222 233.48926,483.442381 233.098633,483.813477 C232.708006,484.184572 232.322268,484.472655 231.941406,484.677734 C231.560545,484.882814 231.189455,485.01709 230.828125,485.080566 C230.466795,485.144043 230.129884,485.175781 229.817383,485.175781 C229.368162,485.175781 228.948244,485.107423 228.557617,484.970703 C228.16699,484.833984 227.827638,484.619142 227.539551,484.326172 C227.251463,484.033202 227.024415,483.662112 226.858398,483.212891 C226.692382,482.76367 226.609375,482.221683 226.609375,481.586914 C226.609375,481.313475 226.628906,481.013185 226.667969,480.686035 C226.707031,480.358885 226.765625,480.004885 226.84375,479.624023 L228.879883,470 L233.201172,470 L231.047852,480.195312 C230.989258,480.507814 230.959961,480.791014 230.959961,481.044922 C230.959961,481.38672 231.023437,481.677245 231.150391,481.916504 C231.277344,482.155763 231.511717,482.275391 231.853516,482.275391 C232.146486,482.275391 232.415038,482.209473 232.65918,482.077637 C232.903322,481.9458 233.125487,481.762696 233.325684,481.52832 C233.52588,481.293944 233.701659,481.013185 233.853027,480.686035 C234.004395,480.358885 234.138671,480.004885 234.255859,479.624023 L236.291992,470 L240.613281,470 L238.459961,480.195312 C238.411133,480.361329 238.376953,480.524902 238.357422,480.686035 C238.337891,480.847169 238.328125,481.005859 238.328125,481.162109 C238.328125,481.582033 238.428222,481.872558 238.628418,482.033691 C238.828614,482.194825 239.13867,482.275391 239.558594,482.275391 C239.851564,482.275391 240.122557,482.209473 240.371582,482.077637 C240.620607,481.9458 240.847655,481.762696 241.052734,481.52832 C241.257814,481.293944 241.438476,481.013185 241.594727,480.686035 C241.750977,480.358885 241.882812,480.004885 241.990234,479.624023 L243.25,479.624023 Z M252.698242,487.402344 C252.483397,488.476568 252.173342,489.3457 251.768066,490.009766 C251.362791,490.673831 250.911135,491.191404 250.413086,491.5625 C249.915037,491.933596 249.395022,492.182617 248.853027,492.30957 C248.311032,492.436524 247.791018,492.5 247.292969,492.5 C246.833982,492.5 246.401857,492.438965 245.996582,492.316895 C245.591307,492.194824 245.237306,492.014161 244.93457,491.774902 C244.631834,491.535643 244.390138,491.232912 244.209473,490.866699 C244.028808,490.500486 243.938477,490.073245 243.938477,489.584961 C243.938477,488.959958 244.087401,488.408206 244.385254,487.929688 C244.683107,487.451169 245.066404,487.033693 245.535156,486.677246 C246.003909,486.320799 246.528806,486.015626 247.109863,485.761719 C247.690921,485.507811 248.264646,485.29297 248.831055,485.117188 L249.197266,483.535156 C248.75781,484.003909 248.242679,484.39453 247.651855,484.707031 C247.061032,485.019533 246.375004,485.175781 245.59375,485.175781 C245.076169,485.175781 244.578127,485.092774 244.099609,484.926758 C243.621091,484.760741 243.196291,484.487307 242.825195,484.106445 C242.4541,483.725584 242.156251,483.227542 241.931641,482.612305 C241.70703,481.997067 241.594727,481.245122 241.594727,480.356445 C241.594727,479.672848 241.663085,478.940434 241.799805,478.15918 C241.936524,477.377926 242.146483,476.596684 242.429688,475.81543 C242.712892,475.034176 243.066892,474.284672 243.491699,473.566895 C243.916506,472.849118 244.414548,472.214358 244.98584,471.662598 C245.557132,471.110837 246.204098,470.671388 246.926758,470.344238 C247.649418,470.017088 248.445308,469.853516 249.314453,469.853516 C250.164067,469.853516 250.781736,469.999999 251.16748,470.292969 C251.553225,470.585939 251.746094,470.947263 251.746094,471.376953 L251.746094,471.552734 L252.068359,470 L256.389648,470 L253.416016,483.916016 C253.875002,483.759765 254.290037,483.571778 254.661133,483.352051 C255.032228,483.132323 255.37158,482.854006 255.679199,482.51709 C255.986818,482.180174 256.265135,481.777346 256.51416,481.308594 C256.763185,480.839841 256.990233,480.278324 257.195312,479.624023 L258.455078,479.624023 C258.152342,480.620122 257.793459,481.450192 257.378418,482.114258 C256.963377,482.778324 256.521487,483.322752 256.052734,483.747559 C255.583982,484.172365 255.100588,484.497069 254.602539,484.72168 C254.10449,484.94629 253.621096,485.117187 253.152344,485.234375 L252.698242,487.402344 Z M251.467773,472.827148 C251.467773,472.739257 251.448242,472.631837 251.40918,472.504883 C251.370117,472.377929 251.3042,472.25586 251.211426,472.138672 C251.118652,472.021484 250.994141,471.921387 250.837891,471.838379 C250.68164,471.755371 250.481447,471.713867 250.237305,471.713867 C249.817381,471.713867 249.419435,471.850585 249.043457,472.124023 C248.667479,472.397462 248.323244,472.761228 248.010742,473.215332 C247.698241,473.669436 247.419923,474.184567 247.175781,474.760742 C246.931639,475.336917 246.724122,475.930173 246.553223,476.540527 C246.382323,477.150882 246.25293,477.751462 246.165039,478.342285 C246.077148,478.933108 246.033203,479.462888 246.033203,479.931641 C246.033203,480.507815 246.086914,480.952147 246.194336,481.264648 C246.301758,481.57715 246.431152,481.809081 246.58252,481.960449 C246.733887,482.111817 246.89746,482.202148 247.073242,482.231445 C247.249024,482.260742 247.405273,482.275391 247.541992,482.275391 C247.747071,482.275391 247.966796,482.224122 248.201172,482.121582 C248.435548,482.019042 248.667479,481.870118 248.896973,481.674805 C249.126466,481.479491 249.333983,481.235353 249.519531,480.942383 C249.705079,480.649413 249.846679,480.312502 249.944336,479.931641 L251.467773,472.827148 Z M248.523438,486.625977 C248.132811,486.772462 247.761721,486.931151 247.410156,487.102051 C247.058592,487.27295 246.748536,487.460936 246.47998,487.666016 C246.211424,487.871095 245.996583,488.098143 245.835449,488.347168 C245.674316,488.596193 245.59375,488.872069 245.59375,489.174805 C245.59375,489.282227 245.613281,489.394531 245.652344,489.511719 C245.691406,489.628907 245.752441,489.736328 245.835449,489.833984 C245.918457,489.931641 246.023437,490.009765 246.150391,490.068359 C246.277344,490.126953 246.42871,490.15625 246.604492,490.15625 C246.916994,490.15625 247.236815,489.938967 247.563965,489.504395 C247.891115,489.069822 248.152343,488.398442 248.347656,487.490234 L248.523438,486.625977 Z M256.023438,485 L260.374023,464.594727 L264.8125,463.994141 L263.201172,471.523438 C263.523439,471.171873 263.84326,470.888673 264.160645,470.673828 C264.478029,470.458983 264.788084,470.292969 265.09082,470.175781 C265.393556,470.058593 265.679198,469.980469 265.947754,469.941406 C266.21631,469.902344 266.467772,469.882812 266.702148,469.882812 C267.180666,469.882812 267.624998,469.946288 268.035156,470.073242 C268.445315,470.200196 268.799315,470.400389 269.097168,470.673828 C269.395021,470.947267 269.626952,471.298826 269.792969,471.728516 C269.958985,472.158205 270.041992,472.670895 270.041992,473.266602 C270.041992,473.666994 270.005371,474.099119 269.932129,474.562988 C269.858886,475.026858 269.768555,475.500486 269.661133,475.983887 C269.55371,476.467288 269.438965,476.94824 269.316895,477.426758 C269.194824,477.905276 269.080079,478.364256 268.972656,478.803711 C268.865234,479.243166 268.774903,479.650877 268.70166,480.026855 C268.628418,480.402834 268.591797,480.73242 268.591797,481.015625 C268.591797,481.386721 268.677245,481.689452 268.848145,481.923828 C269.019044,482.158204 269.333982,482.275391 269.792969,482.275391 C270.271487,482.275391 270.603515,482.211915 270.789062,482.084961 C270.720703,482.631839 270.583985,483.098143 270.378906,483.483887 C270.173827,483.869631 269.922365,484.189452 269.624512,484.443359 C269.326659,484.697267 268.994631,484.882812 268.628418,485 C268.262205,485.117188 267.878908,485.175781 267.478516,485.175781 C266.902341,485.175781 266.421389,485.080567 266.035645,484.890137 C265.6499,484.699706 265.339845,484.445802 265.105469,484.128418 C264.871093,483.811034 264.705079,483.449709 264.607422,483.044434 C264.509765,482.639158 264.460938,482.221682 264.460938,481.791992 C264.460938,481.284177 264.531738,480.690921 264.67334,480.012207 C264.814942,479.333493 264.968749,478.637699 265.134766,477.924805 C265.300782,477.21191 265.454589,476.523441 265.596191,475.859375 C265.737794,475.195309 265.808594,474.624026 265.808594,474.145508 C265.808594,473.120112 265.447269,472.607422 264.724609,472.607422 C264.470702,472.607422 264.233888,472.668456 264.01416,472.790527 C263.794432,472.912598 263.589356,473.083495 263.398926,473.303223 C263.208495,473.52295 263.035157,473.779295 262.878906,474.072266 C262.722655,474.365236 262.585938,474.677733 262.46875,475.009766 L260.344727,485 L256.023438,485 Z" id="Carrie-Clough"></path>
        </g>
    </g>
</svg>